<svg xmlns="http://www.w3.org/2000/svg"  viewBox="0 0 100 100" width="100px" height="100px"><path fill="#fefdef" d="M69.925,81h-40c-6.075,0-11-4.925-11-11V30c0-6.075,4.925-11,11-11h40c6.075,0,11,4.925,11,11v40 C80.925,76.075,76,81,69.925,81z"/><path fill="#fbb822" d="M81.925,36h-63v-6c0-6.627,5.373-12,12-12h39c6.627,0,12,5.373,12,12V36z"/><circle cx="23.925" cy="39" r="1" fill="#1f212b"/><circle cx="27.925" cy="39" r="1" fill="#1f212b"/><circle cx="31.925" cy="39" r="1" fill="#1f212b"/><circle cx="35.925" cy="39" r="1" fill="#1f212b"/><circle cx="39.925" cy="39" r="1" fill="#1f212b"/><circle cx="43.925" cy="39" r="1" fill="#1f212b"/><circle cx="47.925" cy="39" r="1" fill="#1f212b"/><circle cx="51.925" cy="39" r="1" fill="#1f212b"/><circle cx="55.925" cy="39" r="1" fill="#1f212b"/><circle cx="59.925" cy="39" r="1" fill="#1f212b"/><circle cx="63.925" cy="39" r="1" fill="#1f212b"/><circle cx="67.925" cy="39" r="1" fill="#1f212b"/><circle cx="71.925" cy="39" r="1" fill="#1f212b"/><circle cx="75.925" cy="39" r="1" fill="#1f212b"/><path fill="#1f212b" d="M70,18H30c-6.617,0-12,5.383-12,12v40c0,6.617,5.383,12,12,12h40c6.617,0,12-5.383,12-12V30	C82,23.383,76.617,18,70,18z M70,80H30c-5.514,0-10-4.486-10-10v-4h6.425c0.276,0,0.5-0.224,0.5-0.5s-0.224-0.5-0.5-0.5H20V52	h40.425c0.276,0,0.5-0.224,0.5-0.5s-0.224-0.5-0.5-0.5H20V36h6.425c0.276,0,0.5-0.224,0.5-0.5s-0.224-0.5-0.5-0.5H20v-5	c0-5.514,4.486-10,10-10h40c5.514,0,10,4.486,10,10v5H29.425c-0.276,0-0.5,0.224-0.5,0.5s0.224,0.5,0.5,0.5H80v15H63.425	c-0.276,0-0.5,0.224-0.5,0.5s0.224,0.5,0.5,0.5H80v13H29.425c-0.276,0-0.5,0.224-0.5,0.5s0.224,0.5,0.5,0.5H80v4	C80,75.514,75.513,80,70,80z"/></svg>